<svg width="24" height="24" viewBox="0 0 24 24" fill="none" xmlns="http://www.w3.org/2000/svg">
<path fill-rule="evenodd" clip-rule="evenodd" d="M10.0762 3.54525V4.09053L10.3326 4.09069C11.052 4.09114 13.5867 4.19956 14.5366 4.27051C15.5812 4.34853 15.6269 4.36129 15.871 4.6428C16.2212 5.04666 16.6585 5.99023 17.1822 7.47214C17.2572 7.68448 17.3186 7.8703 17.3186 7.88504C17.3186 7.89977 15.6891 7.91182 13.6974 7.91182H10.0762V10.0977V12.2836L10.6434 12.2838C11.6485 12.2842 13.1406 12.3868 13.9771 12.5131C14.5096 12.5934 14.8809 12.6865 15.1272 12.8012L15.3137 12.8881L14.7698 14C13.1501 14.0685 11.7358 14.176 11.2929 14.2643C11.166 14.2896 11.0007 14.3413 10.9256 14.3792C10.7512 14.4671 10.4485 14.6992 10.2394 14.9052L10.0762 15.0659V16.6805V19.384L11.234 19.3631C11.8709 19.3516 12.5597 19.3355 12.7649 19.3272C12.97 19.319 13.3687 19.3039 13.6508 19.2937C14.565 19.2608 16.3672 19.1462 16.7358 19.0976L16.8834 19.0781L16.8859 19.5912C16.8885 20.1618 16.9176 20.298 17.0917 20.5542C17.2174 20.7394 17.4091 20.8847 17.6091 20.9466C17.8423 21.0188 20.1254 21.0174 20.3596 20.9449C20.6001 20.8705 20.8244 20.6643 20.9554 20.3974L21.0641 20.1756L21.0725 15.8891C21.0816 11.1878 21.089 11.3923 20.897 10.9962C20.6802 10.5488 20.2607 10.0989 19.4384 9.43214C19.165 9.21044 18.9457 9.02151 18.951 9.01228C18.9564 9.00309 19.2172 8.99117 19.5307 8.98586C20.1574 8.97524 20.2768 8.95237 20.4407 8.81163C20.5686 8.70179 20.575 8.65007 20.504 8.29443C20.4249 7.89802 20.3687 7.75369 20.2738 7.70255C20.0933 7.60527 19.2273 7.361 19.0651 7.36158C18.9467 7.36204 18.6817 7.52923 18.5549 7.68361C18.4956 7.75569 18.4391 7.81467 18.4293 7.81467C18.4194 7.81467 18.3944 7.76003 18.3737 7.69323C18.2761 7.3782 17.82 6.13178 17.6557 5.73099C17.1115 4.40364 16.5275 3.58644 15.9838 3.39126C15.4706 3.20706 13.524 3.06856 10.6434 3.01127L10.0762 3V3.54525ZM19.7651 11.2554C19.8742 11.3797 19.9269 11.5226 19.9793 11.836C20.0727 12.3948 19.9975 12.8081 19.75 13.0959C19.5717 13.3031 19.4168 13.3628 19.0962 13.3477C18.871 13.337 18.8343 13.3254 18.6822 13.2163C18.3527 12.98 18.2594 12.9535 17.7102 12.9399C17.4289 12.9329 17.1677 12.9102 17.104 12.8873C17.0425 12.8651 16.8001 12.7339 16.5652 12.5957L16.1381 12.3444L16.2855 12.2112C16.7684 11.7746 17.1955 11.6126 18.518 11.3646C18.8584 11.3008 19.2069 11.2354 19.2924 11.2192C19.5738 11.166 19.6948 11.1753 19.7651 11.2554Z" fill="#465166"/>
<path fill-rule="evenodd" clip-rule="evenodd" d="M7.07394 3.68127C7.08091 3.84842 7.02583 4.01177 6.92065 4.13588C6.81547 4.26 6.66867 4.33487 6.51209 4.34426H5.21812C5.41885 4.67047 5.56035 5.03401 5.63525 5.41596H6.48655C6.56371 5.41946 6.63946 5.43916 6.70948 5.47393C6.7795 5.50871 6.8424 5.55787 6.89458 5.61861C6.94677 5.67934 6.98722 5.75047 7.01361 5.8279C7.04001 5.90534 7.05183 5.98756 7.0484 6.06987C7.05537 6.23703 7.00029 6.40038 6.89511 6.52449C6.78993 6.64861 6.64313 6.72348 6.48655 6.73287H5.63525C5.53953 7.39212 5.23285 7.99568 4.7673 8.44104C4.30175 8.88639 3.70604 9.14608 3.08137 9.17598L5.50756 11.9006C5.60729 12.028 5.66193 12.1887 5.66193 12.3547C5.66193 12.5207 5.60729 12.6814 5.50756 12.8088C5.45725 12.869 5.3956 12.9171 5.32665 12.95C5.2577 12.983 5.183 13 5.10745 13C5.0319 13 4.9572 12.983 4.88825 12.95C4.8193 12.9171 4.75765 12.869 4.70734 12.8088L1.25109 8.98525C1.1693 8.89023 1.11339 8.77317 1.08939 8.64673C1.06538 8.52028 1.0742 8.38925 1.11489 8.26776C1.15095 8.14878 1.2215 8.04509 1.31635 7.97164C1.41121 7.89819 1.52548 7.85877 1.64269 7.85906H3.02178C3.33873 7.84446 3.64373 7.72584 3.89512 7.5194C4.14652 7.31296 4.33206 7.02877 4.42642 6.70563H1.64269C1.4861 6.69623 1.3393 6.62136 1.23412 6.49724C1.12894 6.37313 1.07386 6.20978 1.08083 6.04263C1.07741 5.96031 1.08923 5.87809 1.11562 5.80065C1.14201 5.72322 1.18246 5.6521 1.23465 5.59136C1.28684 5.53062 1.34974 5.48146 1.41975 5.44669C1.48977 5.41192 1.56553 5.39221 1.64269 5.38871H4.42642C4.32784 5.07506 4.13899 4.80261 3.88678 4.61018C3.63456 4.41775 3.33185 4.31515 3.02178 4.31702H1.64269C1.4861 4.30762 1.3393 4.23275 1.23412 4.10863C1.12894 3.98452 1.07386 3.82117 1.08083 3.65402C1.07741 3.5717 1.08923 3.48948 1.11562 3.41205C1.14201 3.33461 1.18246 3.26349 1.23465 3.20275C1.28684 3.14201 1.34974 3.09285 1.41975 3.05808C1.48977 3.0233 1.56553 3.00361 1.64269 3.0001H6.47803C6.56038 2.9985 6.64212 3.01538 6.71795 3.04966C6.79378 3.08394 6.862 3.13485 6.9182 3.19908C6.97439 3.26331 7.01729 3.33944 7.04413 3.42251C7.07096 3.50558 7.08111 3.59374 7.07394 3.68127V3.68127Z" fill="#465166"/>
</svg>
