<svg width="24" height="24" viewBox="0 0 24 24" fill="none" xmlns="http://www.w3.org/2000/svg">
<path fill-rule="evenodd" clip-rule="evenodd" d="M3.15055 16H6.00179C6.28673 16 6.56001 15.8934 6.76149 15.7037C6.96298 15.5141 7.07617 15.2568 7.07617 14.9885L7.07617 10.9556C7.07538 10.7025 6.97379 10.4588 6.79145 10.2727C6.60911 10.0866 6.35929 9.97172 6.09132 9.95062V9.26334C6.09128 9.16362 6.04917 9.068 5.97424 8.99751L5.48526 8.53716L5.97424 8.07681C6.01186 8.04092 6.04156 7.99839 6.06166 7.95165C6.08175 7.90492 6.09183 7.8549 6.09132 7.80449V6.88379C6.09128 6.78407 6.04917 6.68845 5.97424 6.61796L5.48526 6.15761L5.97424 5.69726C6.01186 5.66137 6.04156 5.61883 6.06166 5.5721C6.08175 5.52536 6.09183 5.47535 6.09132 5.42494V4.6793C6.0936 4.58976 6.06185 4.50239 6.00179 4.43292L4.88609 3.13616C4.84775 3.09395 4.80025 3.05996 4.7468 3.03648C4.69334 3.01299 4.63516 3.00056 4.57617 3C4.51711 3.00013 4.45878 3.01237 4.40526 3.03589C4.35173 3.0594 4.3043 3.09362 4.26625 3.13616L3.15055 4.43292C3.08854 4.50176 3.05439 4.58904 3.05413 4.6793L3.05413 9.95062C2.7874 9.97325 2.53926 10.0888 2.35835 10.2748C2.17744 10.4607 2.07681 10.7035 2.07617 10.9556L2.07617 14.9885C2.07617 15.2568 2.18937 15.5141 2.39085 15.7037C2.59234 15.8934 2.86561 16 3.15055 16Z" fill="#465166"/>
<path fill-rule="evenodd" clip-rule="evenodd" d="M5.07617 15C4.81387 15 4.56205 14.9106 4.37499 14.7511C4.18793 14.5915 4.08062 14.3746 4.07617 14.1471L4.07617 11.8676C4.07617 11.6375 4.18153 11.4168 4.36906 11.2541C4.5566 11.0914 4.81096 11 5.07617 11C5.34139 11 5.59574 11.0914 5.78328 11.2541C5.97082 11.4168 6.07617 11.6375 6.07617 11.8676L6.07617 14.1471C6.07173 14.3746 5.96441 14.5915 5.77735 14.7511C5.5903 14.9106 5.33848 15 5.07617 15Z" fill="white"/>
<path fill-rule="evenodd" clip-rule="evenodd" d="M10.0762 3.54525V4.09053L10.3326 4.09069C11.052 4.09114 13.5867 4.19956 14.5366 4.27051C15.5812 4.34853 15.627 4.36129 15.871 4.6428C16.2212 5.04666 16.6585 5.99023 17.1822 7.47214C17.2572 7.68448 17.3186 7.8703 17.3186 7.88504C17.3186 7.89977 15.6891 7.91182 13.6974 7.91182H10.0762V10.0977V12.2836L10.6434 12.2838C11.6485 12.2842 13.1406 12.3868 13.9771 12.5131C14.5096 12.5934 14.8809 12.6865 15.1272 12.8012L15.3137 12.8881L14.7698 14C13.1501 14.0685 11.7358 14.176 11.2929 14.2643C11.166 14.2896 11.0007 14.3413 10.9256 14.3792C10.7512 14.4671 10.4485 14.6992 10.2394 14.9052L10.0762 15.0659V16.6805V19.384L11.234 19.3631C11.8709 19.3516 12.5597 19.3355 12.7649 19.3272C12.97 19.319 13.3687 19.3039 13.6508 19.2937C14.565 19.2608 16.3672 19.1462 16.7358 19.0976L16.8834 19.0781L16.8859 19.5912C16.8885 20.1618 16.9176 20.2979 17.0917 20.5542C17.2174 20.7394 17.4091 20.8847 17.6091 20.9466C17.8423 21.0188 20.1254 21.0174 20.3596 20.9449C20.6001 20.8705 20.8244 20.6643 20.9554 20.3974L21.0642 20.1756L21.0725 15.8891C21.0816 11.1878 21.089 11.3923 20.897 10.9961C20.6802 10.5488 20.2607 10.0989 19.4384 9.43214C19.165 9.21044 18.9457 9.02151 18.951 9.01228C18.9564 9.00309 19.2172 8.99117 19.5307 8.98586C20.1574 8.97524 20.2768 8.95237 20.4407 8.81163C20.5687 8.70179 20.575 8.65007 20.504 8.29443C20.4249 7.89802 20.3687 7.75369 20.2738 7.70255C20.0933 7.60527 19.2273 7.361 19.0651 7.36158C18.9467 7.36204 18.6817 7.52923 18.5549 7.68361C18.4956 7.75569 18.4391 7.81466 18.4293 7.81466C18.4194 7.81466 18.3944 7.76003 18.3737 7.69323C18.2761 7.3782 17.82 6.13177 17.6557 5.73099C17.1115 4.40364 16.5275 3.58644 15.9838 3.39126C15.4706 3.20706 13.524 3.06856 10.6434 3.01127L10.0762 3V3.54525ZM19.7651 11.2554C19.8742 11.3797 19.9269 11.5226 19.9793 11.836C20.0727 12.3948 19.9975 12.8081 19.75 13.0958C19.5717 13.3031 19.4168 13.3628 19.0962 13.3477C18.871 13.337 18.8343 13.3254 18.6822 13.2163C18.3527 12.98 18.2594 12.9535 17.7102 12.9399C17.4289 12.9329 17.1677 12.9102 17.104 12.8873C17.0426 12.8651 16.8001 12.7339 16.5652 12.5956L16.1381 12.3444L16.2855 12.2112C16.7684 11.7746 17.1955 11.6126 18.518 11.3646C18.8584 11.3008 19.2069 11.2354 19.2924 11.2192C19.5738 11.166 19.6948 11.1753 19.7651 11.2554Z" fill="#465166"/>
</svg>
