<svg width="25" height="24" viewBox="0 0 25 24" fill="none" xmlns="http://www.w3.org/2000/svg">
<path d="M9.59991 5.35545L9.12453 4.45556C9.16525 4.44067 9.22286 4.42773 9.29857 4.42773H16.528C16.6037 4.42773 16.6613 4.44067 16.702 4.45556L16.2266 5.35545H9.59991Z" fill="#465166" stroke="#465166" stroke-linejoin="round"/>
<path d="M11.1308 3.42771C11.3904 2.92293 12.0318 2.5 12.9131 2.5C13.7943 2.5 14.4357 2.92293 14.6954 3.42771H11.1308Z" fill="#465166" stroke="#465166" stroke-linejoin="round"/>
<path d="M16.248 7.75C16.2531 7.75478 16.2584 7.75966 16.2638 7.76463C16.4073 7.89757 16.615 8.09568 16.8653 8.35128C17.3668 8.86328 18.0355 9.60164 18.7029 10.5049C20.0522 12.331 21.3269 14.7375 21.3269 17.2632C21.3269 20.0049 19.2897 21.25 18.1186 21.25H18.1093H18.0999H18.0905H18.081H18.0715H18.0619H18.0523H18.0426H18.0329H18.0231H18.0133H18.0034H17.9935H17.9835H17.9735H17.9634H17.9532H17.943H17.9328H17.9225H17.9122H17.9018H17.8914H17.8809H17.8704H17.8598H17.8492H17.8385H17.8278H17.8171H17.8063H17.7954H17.7845H17.7736H17.7626H17.7516H17.7405H17.7294H17.7182H17.707H17.6958H17.6845H17.6731H17.6618H17.6504H17.6389H17.6274H17.6159H17.6043H17.5927H17.581H17.5693H17.5575H17.5458H17.5339H17.5221H17.5102H17.4983H17.4863H17.4743H17.4622H17.4501H17.438H17.4259H17.4137H17.4014H17.3892H17.3769H17.3645H17.3522H17.3398H17.3273H17.3148H17.3023H17.2898H17.2772H17.2646H17.252H17.2393H17.2266H17.2139H17.2011H17.1883H17.1755H17.1626H17.1497H17.1368H17.1238H17.1109H17.0979H17.0848H17.0718H17.0587H17.0455H17.0324H17.0192H17.006H16.9928H16.9795H16.9662H16.9529H16.9396H16.9262H16.9128H16.8994H16.886H16.8725H16.859H16.8455H16.832H16.8184H16.8049H16.7913H16.7776H16.764H16.7503H16.7366H16.7229H16.7092H16.6954H16.6817H16.6679H16.6541H16.6402H16.6264H16.6125H16.5986H16.5847H16.5708H16.5568H16.5429H16.5289H16.5149H16.5009H16.4869H16.4728H16.4588H16.4447H16.4306H16.4165H16.4024H16.3882H16.3741H16.3599H16.3458H16.3316H16.3174H16.3032H16.2889H16.2747H16.2604H16.2462H16.2319H16.2176H16.2033H16.189H16.1747H16.1604H16.146H16.1317H16.1173H16.103H16.0886H16.0742H16.0598H16.0454H16.031H16.0166H16.0022H15.9878H15.9733H15.9589H15.9445H15.93H15.9156H15.9011H15.8866H15.8722H15.8577H15.8432H15.8287H15.8143H15.7998H15.7853H15.7708H15.7563H15.7418H15.7273H15.7128H15.6983H15.6838H15.6694H15.6549H15.6404H15.6259H15.6114H15.5969H15.5824H15.5679H15.5534H15.5389H15.5244H15.51H15.4955H15.481H15.4665H15.4521H15.4376H15.4232H15.4087H15.3943H15.3798H15.3654H15.3509H15.3365H15.3221H15.3077H15.2933H15.2789H15.2645H15.2501H15.2358H15.2214H15.207H15.1927H15.1783H15.164H15.1497H15.1354H15.1211H15.1068H15.0925H15.0783H15.064H15.0498H15.0356H15.0213H15.0071H14.9929H14.9788H14.9646H14.9505H14.9363H14.9222H14.9081H14.894H14.8799H14.8659H14.8518H14.8378H14.8238H14.8098H14.7958H14.7819H14.7679H14.754H14.7401H14.7262H14.7123H14.6985H14.6846H14.6708H14.657H14.6433H14.6295H14.6158H14.6021H14.5884H14.5747H14.5611H14.5474H14.5338H14.5203H14.5067H14.4932H14.4797H14.4662H14.4527H14.4393H14.4259H14.4125H14.3991H14.3858H14.3725H14.3592H14.3459H14.3327H14.3195H14.3063H14.2932H14.28H14.267H14.2539H14.2409H14.2278H14.2149H14.2019H14.189H14.1761H14.1632H14.1504H14.1376H14.1248H14.1121H14.0994H14.0867H14.0741H14.0615H14.0489H14.0364H14.0239H14.0114H13.9989H13.9865H13.9742H13.9618H13.9495H13.9373H13.925H13.9128H13.9007H13.8886H13.8765H13.8644H13.8524H13.8404H13.8285H13.8166H13.8048H13.7929H13.7812H13.7694H13.7577H13.7461H13.7344H13.7228H13.7113H13.6998H13.6884H13.6769H13.6656H13.6542H13.6429H13.6317H13.6205H13.6093H13.5982H13.5871H13.5761H13.5651H13.5542H13.5433H13.5324H13.5216H13.5109H13.5002H13.4895H13.4789H13.4683H13.4578H13.4473H13.4369H13.4265H13.4162H13.4059H13.3957H13.3855H13.3753H13.3652H13.3552H13.3452H13.3353H13.3254H13.3156H13.3058H13.2961H13.2864H13.2768H13.2672H13.2577H13.2482H13.2388H13.2294H13.2201H13.2109H13.2017H13.1925H13.1835H13.1744H13.1655H13.1565H13.1477H13.1389H13.1301H13.1214H13.1128H13.1042H13.0957H13.0872H13.0788H13.0705H13.0622H13.054H13.0458H13.0377H13.0297H13.0217H13.0138H13.0059H12.9981H12.9904H12.9827H12.9751H12.9675H12.9601H12.9526H12.9453H12.938H12.9307H12.9236H12.9165H12.9094H12.9025H12.8955H12.8887H12.8819H12.8752H12.8686H12.862H12.8555H12.849H12.8427H12.8364H12.8301H12.8239H12.8178H12.8118H12.8058H12.7999H12.7941H12.7884H12.7827H12.7771H12.7715H12.7661H12.7607H12.7553H12.7501H12.7449H12.7398H12.7348H12.7298H12.7249H12.7201H12.7153H12.7107H12.7061H12.7016H12.6971H12.6928H12.6885H12.6843H12.6801H12.6761H12.6721H12.6682H12.6643H12.6606H12.6569H12.6533H12.6498H12.6464H12.643H12.6397H12.6365H12.6334H12.6304H12.6274H12.6245H12.6217H12.619H12.6164H12.6139H12.6114H12.609H12.6067H12.6045H12.6023H12.6003H12.5983H12.5964H12.5946H12.5929H12.5913H12.5898H12.5883H12.5869H12.5857H12.5845H12.5833H12.5823H12.5814H12.5805H12.5798H12.5791H12.5785H12.578H12.5776H12.5773H12.5771H12.5769L12.5769 22L12.5769 21.25H12.5767H12.5765H12.5762H12.5758H12.5753H12.5747H12.574H12.5733H12.5724H12.5715H12.5705H12.5694H12.5682H12.5669H12.5655H12.564H12.5625H12.5609H12.5592H12.5574H12.5555H12.5535H12.5515H12.5493H12.5471H12.5448H12.5424H12.54H12.5374H12.5348H12.5321H12.5293H12.5264H12.5234H12.5204H12.5173H12.5141H12.5108H12.5074H12.504H12.5005H12.4969H12.4932H12.4895H12.4856H12.4817H12.4778H12.4737H12.4696H12.4653H12.461H12.4567H12.4522H12.4477H12.4431H12.4385H12.4337H12.4289H12.424H12.4191H12.414H12.4089H12.4037H12.3985H12.3931H12.3877H12.3823H12.3767H12.3711H12.3654H12.3597H12.3539H12.348H12.342H12.336H12.3299H12.3237H12.3175H12.3111H12.3048H12.2983H12.2918H12.2852H12.2786H12.2719H12.2651H12.2583H12.2514H12.2444H12.2373H12.2302H12.2231H12.2158H12.2085H12.2012H12.1937H12.1863H12.1787H12.1711H12.1634H12.1557H12.1479H12.14H12.1321H12.1241H12.1161H12.108H12.0998H12.0916H12.0833H12.075H12.0666H12.0581H12.0496H12.041H12.0324H12.0237H12.0149H12.0061H11.9973H11.9884H11.9794H11.9703H11.9613H11.9521H11.9429H11.9337H11.9244H11.915H11.9056H11.8961H11.8866H11.877H11.8674H11.8577H11.848H11.8382H11.8284H11.8185H11.8086H11.7986H11.7886H11.7785H11.7683H11.7582H11.7479H11.7376H11.7273H11.7169H11.7065H11.696H11.6855H11.6749H11.6643H11.6536H11.6429H11.6322H11.6214H11.6105H11.5996H11.5887H11.5777H11.5667H11.5556H11.5445H11.5333H11.5221H11.5109H11.4996H11.4882H11.4769H11.4655H11.454H11.4425H11.431H11.4194H11.4078H11.3961H11.3844H11.3727H11.3609H11.3491H11.3372H11.3253H11.3134H11.3014H11.2894H11.2773H11.2652H11.2531H11.241H11.2288H11.2165H11.2043H11.192H11.1796H11.1673H11.1549H11.1424H11.1299H11.1174H11.1049H11.0923H11.0797H11.0671H11.0544H11.0417H11.029H11.0162H11.0034H10.9906H10.9777H10.9648H10.9519H10.9389H10.926H10.913H10.8999H10.8869H10.8738H10.8606H10.8475H10.8343H10.8211H10.8079H10.7946H10.7813H10.768H10.7547H10.7413H10.7279H10.7145H10.7011H10.6876H10.6741H10.6606H10.6471H10.6335H10.62H10.6064H10.5927H10.5791H10.5654H10.5517H10.538H10.5243H10.5105H10.4968H10.483H10.4692H10.4553H10.4415H10.4276H10.4137H10.3998H10.3859H10.372H10.358H10.344H10.33H10.316H10.302H10.2879H10.2739H10.2598H10.2457H10.2316H10.2175H10.2034H10.1892H10.175H10.1609H10.1467H10.1325H10.1183H10.104H10.0898H10.0755H10.0613H10.047H10.0327H10.0184H10.0041H9.98979H9.97546H9.96112H9.94678H9.93242H9.91806H9.90369H9.8893H9.87492H9.86052H9.84612H9.8317H9.81729H9.80286H9.78843H9.774H9.75955H9.74511H9.73065H9.7162H9.70174H9.68727H9.6728H9.65833H9.64385H9.62937H9.61488H9.6004H9.58591H9.57142H9.55693H9.54244H9.52794H9.51345H9.49895H9.48446H9.46996H9.45547H9.44097H9.42648H9.41198H9.39749H9.383H9.36851H9.35403H9.33955H9.32507H9.31059H9.29611H9.28164H9.26718H9.25272H9.23826H9.22381H9.20936H9.19492H9.18048H9.16605H9.15163H9.13721H9.1228H9.10839H9.094H9.07961H9.06523H9.05086H9.03649H9.02214H9.00779H8.99345H8.97913H8.96481H8.9505H8.9362H8.92192H8.90764H8.89338H8.87913H8.86489H8.85066H8.83644H8.82224H8.80805H8.79387H8.77971H8.76556H8.75143H8.73731H8.7232H8.70911H8.69504H8.68098H8.66693H8.6529H8.63889H8.6249H8.61092H8.59696H8.58302H8.56909H8.55519H8.5413H8.52743H8.51358H8.49974H8.48593H8.47214H8.45837H8.44462H8.43088H8.41717H8.40349H8.38982H8.37617H8.36255H8.34895H8.33537H8.32181H8.30828H8.29477H8.28129H8.26783H8.25439H8.24098H8.22759H8.21423H8.20089H8.18758H8.1743H8.16104H8.14781H8.1346H8.12143H8.10828H8.09515H8.08206H8.06899H8.05595H8.04295H8.02997H8.01702H8.0041H7.99121H7.97835H7.96552H7.95272H7.93995H7.92722H7.91451H7.90184H7.8892H7.87659H7.86402H7.85148H7.83897H7.82649H7.81405H7.80165H7.78928H7.77694H7.76464H7.75237H7.74014H7.72795H7.71579H7.70367H7.69158H7.67953H7.66752H7.65555H7.64361H7.63172H7.61986H7.60804H7.59626H7.58452H7.57282H7.56116H7.54953H7.53795H7.52641H7.51491H7.50346H7.49204H7.48067H7.46934H7.45805H7.4468H7.4356H7.42444H7.41332H7.40225H7.39122H7.38023H7.36929H7.3584H7.34755H7.33675H7.32599H7.31528H7.30461H7.29399H7.28342H7.2729H7.26242H7.25199H7.24161H7.23128H7.221H7.21076H7.20058H7.19044H7.18035H7.17032H7.16033H7.1504H7.14051H7.13068H7.1209H7.11117H7.10149H7.09187H7.0823H7.07278H7.06331H7.0539H7.04454H7.03524C5.86416 21.25 3.8269 20.0049 3.8269 17.2632C3.8269 14.7375 5.10164 12.331 6.45094 10.5049C7.11835 9.60164 7.78701 8.86328 8.28849 8.35128C8.53884 8.09568 8.74647 7.89757 8.89003 7.76463C8.8954 7.75966 8.90067 7.75478 8.90586 7.75H16.248Z" fill="#465166" stroke="#465166" stroke-width="1.5"/>
<path d="M13.169 18.3855C13.0103 18.3855 12.8596 18.3152 12.7577 18.1935L10.6197 15.642C10.5446 15.5523 10.5034 15.439 10.5034 15.322C10.5034 15.0469 10.7265 14.8239 11.0016 14.8239H11.1446C11.401 14.8239 11.6254 14.7933 11.8178 14.7321C12.0172 14.6648 12.1811 14.5699 12.3093 14.4475C12.4447 14.3251 12.5373 14.1782 12.5871 14.0069H10.8431C10.6555 14.0069 10.5034 13.8548 10.5034 13.6672C10.5034 13.4797 10.6555 13.3276 10.8431 13.3276H12.5765C12.5337 13.1685 12.4589 13.0277 12.3521 12.9053C12.2523 12.7829 12.117 12.6881 11.946 12.6208C11.7821 12.5473 11.5827 12.5106 11.3476 12.5106H10.9394C10.6986 12.5106 10.5034 12.3154 10.5034 12.0746C10.5034 11.8338 10.6986 11.6385 10.9394 11.6385H14.8867C15.1275 11.6385 15.3227 11.8338 15.3227 12.0746C15.3227 12.3154 15.1275 12.5106 14.8867 12.5106H13.645C13.7661 12.6269 13.8659 12.7523 13.9442 12.887C14.0297 13.0216 14.0867 13.1685 14.1152 13.3276H14.9831C15.1706 13.3276 15.3227 13.4797 15.3227 13.6672C15.3227 13.8548 15.1706 14.0069 14.9831 14.0069H14.1366C14.0653 14.4597 13.8623 14.8147 13.5275 15.0717C13.1927 15.3226 12.564 15.5949 12.0368 15.6867L13.5781 17.5015C13.8741 17.8501 13.6264 18.3855 13.169 18.3855Z" fill="white"/>
</svg>
