<svg width="24" height="24" viewBox="0 0 24 24" fill="none" xmlns="http://www.w3.org/2000/svg">
<path fill-rule="evenodd" clip-rule="evenodd" d="M10.0781 3.54525V4.09053L10.3346 4.09069C11.054 4.09114 13.5886 4.19956 14.5386 4.27051C15.5831 4.34853 15.6289 4.36129 15.873 4.6428C16.2232 5.04666 16.6604 5.99023 17.1841 7.47214C17.2592 7.68448 17.3206 7.8703 17.3206 7.88504C17.3206 7.89977 15.691 7.91182 13.6993 7.91182H10.0781V10.0977V12.2836L10.6454 12.2838C11.6504 12.2842 13.1425 12.3868 13.9791 12.5131C14.5115 12.5934 14.8829 12.6865 15.1292 12.8012L15.3157 12.8881L14.7717 14C13.1521 14.0685 11.7378 14.176 11.2948 14.2643C11.1679 14.2896 11.0026 14.3413 10.9275 14.3792C10.7532 14.4671 10.4504 14.6992 10.2413 14.9052L10.0781 15.0659V16.6805V19.384L11.236 19.3631C11.8728 19.3516 12.5617 19.3355 12.7668 19.3272C12.972 19.319 13.3706 19.3039 13.6527 19.2937C14.5669 19.2608 16.3691 19.1462 16.7377 19.0976L16.8854 19.0781L16.8878 19.5912C16.8905 20.1618 16.9196 20.2979 17.0936 20.5542C17.2194 20.7394 17.411 20.8847 17.611 20.9466C17.8443 21.0188 20.1274 21.0174 20.3616 20.9449C20.602 20.8705 20.8264 20.6643 20.9573 20.3974L21.0661 20.1756L21.0744 15.8891C21.0836 11.1878 21.0909 11.3923 20.899 10.9961C20.6822 10.5488 20.2627 10.0989 19.4404 9.43214C19.167 9.21044 18.9477 9.02151 18.953 9.01228C18.9583 9.00309 19.2192 8.99117 19.5326 8.98586C20.1593 8.97524 20.2788 8.95237 20.4427 8.81163C20.5706 8.70179 20.5769 8.65007 20.5059 8.29443C20.4268 7.89802 20.3707 7.75369 20.2757 7.70255C20.0952 7.60527 19.2292 7.361 19.0671 7.36158C18.9486 7.36204 18.6837 7.52923 18.5568 7.68361C18.4976 7.75569 18.4411 7.81466 18.4312 7.81466C18.4214 7.81466 18.3964 7.76003 18.3757 7.69323C18.2781 7.3782 17.822 6.13177 17.6577 5.73099C17.1134 4.40364 16.5295 3.58644 15.9857 3.39126C15.4726 3.20706 13.5259 3.06856 10.6454 3.01127L10.0781 3V3.54525ZM19.7671 11.2554C19.8761 11.3797 19.9289 11.5226 19.9812 11.836C20.0747 12.3948 19.9994 12.8081 19.752 13.0958C19.5737 13.3031 19.4187 13.3628 19.0982 13.3477C18.873 13.337 18.8362 13.3254 18.6842 13.2163C18.3547 12.98 18.2614 12.9535 17.7121 12.9399C17.4308 12.9329 17.1696 12.9102 17.106 12.8873C17.0445 12.8651 16.802 12.7339 16.5672 12.5956L16.1401 12.3444L16.2874 12.2112C16.7703 11.7746 17.1974 11.6126 18.52 11.3646C18.8604 11.3008 19.2089 11.2354 19.2944 11.2192C19.5757 11.166 19.6968 11.1753 19.7671 11.2554Z" fill="#465166"/>
<path d="M3.1355 7.639L3.86439 5.41397C3.90631 5.28599 4.08799 5.28779 4.12737 5.41658L4.80101 7.61985C4.90315 7.95393 5.17222 8.21048 5.51078 8.2966L7.57053 8.82057C7.70172 8.85395 7.71135 9.03663 7.58439 9.08361L5.41846 9.88504C5.13231 9.99092 4.91015 10.2216 4.81517 10.5116L4.12657 12.6136C4.08554 12.7389 3.909 12.7407 3.86535 12.6164L3.11967 10.4918C3.02194 10.2134 2.80619 9.99231 2.5302 9.88781L0.405071 9.08319C0.279338 9.03559 0.289058 8.85458 0.419165 8.82072L2.4371 8.29544C2.76643 8.20972 3.02956 7.9624 3.1355 7.639Z" fill="#465166"/>
<path d="M6.02343 2.45479L6.43219 1.20699C6.45316 1.14299 6.544 1.1439 6.56368 1.20829L6.93894 2.43564C7.04109 2.76971 7.31016 3.02627 7.64871 3.11239L8.78526 3.40151C8.85086 3.4182 8.85567 3.50954 8.7922 3.53303L7.55639 3.9903C7.27024 4.09618 7.04808 4.3269 6.9531 4.61685L6.56329 5.80681C6.54277 5.86944 6.4545 5.87037 6.43267 5.80818L6.0076 4.59711C5.90987 4.31864 5.69412 4.09757 5.41813 3.99307L4.20254 3.53282C4.13967 3.50902 4.14453 3.41852 4.20958 3.40159L5.32503 3.11123C5.65436 3.02551 5.91749 2.77818 6.02343 2.45479Z" fill="#465166"/>
</svg>
