<svg width="24" height="24" viewBox="0 0 24 24" fill="none" xmlns="http://www.w3.org/2000/svg">
<path d="M1.71322 0.962001C2.10134 0.88189 2.48788 0.784501 2.88072 0.727952C3.63487 0.621138 4.31801 0.825342 4.94121 1.24789C5.64171 1.72384 6.07873 2.37729 6.24912 3.2051C6.43371 4.1036 6.22861 4.92198 5.7127 5.66497C5.58018 5.85504 5.39085 6.00898 5.21415 6.16606C5.10371 6.26502 5.06111 6.36869 5.06111 6.51949C5.06585 8.77672 5.07058 11.034 5.05796 13.2912C5.05638 13.6933 5.02325 14.1049 4.75504 14.4536C4.36692 14.9594 3.86048 15.2217 3.2294 15.1243C2.59358 15.0254 2.17549 14.6185 1.96092 14.0169C1.91832 13.8991 1.91201 13.764 1.91201 13.6368C1.90886 11.3858 1.90728 9.13487 1.91201 6.88391C1.91201 6.73469 1.86784 6.66714 1.73058 6.59646C0.828131 6.12836 0.282244 5.3728 0.0629432 4.39891C-0.0758948 3.77844 0.0250784 3.16426 0.266467 2.57678C0.286977 2.52495 0.307488 2.47468 0.334309 2.40871C0.36744 2.43384 0.392684 2.44955 0.413194 2.46997C0.854951 2.89723 1.29986 3.32134 1.73689 3.75174C1.95461 3.96694 2.15498 4.19942 2.37428 4.41305C2.41372 4.45232 2.50996 4.46959 2.56361 4.45232C2.80184 4.37063 3.03376 4.26853 3.27042 4.18057C3.41399 4.12716 3.49603 4.04391 3.53705 3.88683C3.58911 3.69362 3.67273 3.50512 3.76739 3.32762C3.85259 3.17054 3.79264 3.08101 3.6822 2.97262C3.07005 2.37101 2.46263 1.76154 1.85364 1.15678C1.80788 1.11123 1.76055 1.06724 1.71322 1.02326C1.71322 1.00127 1.71322 0.980851 1.71322 0.95886V0.962001Z" fill="#465166"/>
<path fill-rule="evenodd" clip-rule="evenodd" d="M8.42102 1.30578V1.91165L8.69096 1.91183C9.44821 1.91233 12.1163 2.0328 13.1162 2.11163C14.2158 2.19831 14.2639 2.21249 14.5209 2.52528C14.8895 2.97402 15.3498 4.02242 15.901 5.669C15.98 5.90493 16.0446 6.1114 16.0446 6.12777C16.0446 6.14414 14.3293 6.15753 12.2328 6.15753H8.42102V8.58631V11.0151L9.01815 11.0153C10.0761 11.0157 11.6467 11.1297 12.5273 11.27C13.0877 11.3593 13.4786 11.4627 13.7379 11.5902L13.9342 11.6867L13.3616 11.7123C11.6567 11.7884 10.168 11.9078 9.70175 12.0059C9.56816 12.034 9.39419 12.0915 9.31514 12.1336C9.13162 12.2313 8.8129 12.4891 8.5928 12.718L8.42102 12.8966V15.9005V18.9044L9.63982 18.8812C10.3102 18.8684 11.0353 18.8505 11.2512 18.8413C11.4672 18.8322 11.8868 18.8154 12.1837 18.8041C13.1461 18.7675 15.0431 18.6402 15.4311 18.5862L15.5866 18.5646L15.5891 19.1347C15.5919 19.7686 15.6226 19.9199 15.8057 20.2046C15.9381 20.4104 16.1398 20.5719 16.3504 20.6407C16.5959 20.7208 18.9992 20.7192 19.2457 20.6387C19.4988 20.5561 19.7349 20.327 19.8728 20.0304L19.9873 19.784L19.9961 15.0211C20.0057 9.79754 20.0134 10.0247 19.8114 9.58456C19.5832 9.08747 19.1416 8.58764 18.276 7.84677C17.9882 7.60044 17.7574 7.39052 17.763 7.38027C17.7686 7.37005 18.0432 7.35681 18.3731 7.3509C19.0328 7.3391 19.1586 7.3137 19.3311 7.15732C19.4657 7.03527 19.4724 6.97781 19.3977 6.58265C19.3144 6.1422 19.2553 5.98182 19.1554 5.92501C18.9653 5.81692 18.0538 5.54551 17.8831 5.54615C17.7584 5.54666 17.4795 5.73243 17.346 5.90396C17.2836 5.98406 17.2241 6.04958 17.2138 6.04958C17.2034 6.04958 17.177 5.98888 17.1553 5.91465C17.0526 5.56461 16.5725 4.1797 16.3995 3.73439C15.8266 2.25956 15.2119 1.35155 14.6395 1.13469C14.0994 0.93002 12.0503 0.776125 9.01815 0.712473L8.42102 0.699951V1.30578ZM18.6199 9.87267C18.7347 10.0107 18.7902 10.1696 18.8453 10.5177C18.9437 11.1386 18.8645 11.5978 18.604 11.9176C18.4164 12.1479 18.2532 12.2142 17.9158 12.1974C17.6787 12.1855 17.6401 12.1726 17.48 12.0514C17.1332 11.7889 17.035 11.7594 16.4568 11.7442C16.1607 11.7365 15.8857 11.7113 15.8188 11.6858C15.754 11.6612 15.4988 11.5154 15.2516 11.3618L14.802 11.0826L14.9571 10.9346C15.4655 10.4495 15.915 10.2695 17.3072 9.994C17.6655 9.92308 18.0323 9.85036 18.1223 9.83241C18.4185 9.77332 18.5459 9.78361 18.6199 9.87267Z" fill="#465166"/>
</svg>
